<svg id="svg" version="1.1" xmlns="http://www.w3.org/2000/svg" xmlns:xlink="http://www.w3.org/1999/xlink" width="400" height="225" viewBox="0, 0, 400,225"><g id="svgg"><path id="path0" d="M350.983 9.398 C 336.388 24.776,311.481 49.965,301.181 59.765 C 299.881 61.002,296.335 64.397,293.303 67.310 C 290.270 70.222,286.117 74.122,284.074 75.976 C 282.032 77.830,280.259 79.456,280.135 79.588 C 280.011 79.720,278.653 80.936,277.117 82.289 C 275.581 83.642,272.326 86.522,269.883 88.689 C 261.417 96.199,258.350 98.786,247.081 107.926 C 213.315 135.310,182.719 150.531,165.361 148.580 C 149.849 146.835,140.380 134.990,137.407 113.608 C 136.781 109.108,137.138 108.936,131.908 116.266 C 130.543 118.178,127.996 121.693,125.711 124.817 C 124.190 126.898,121.325 130.897,118.475 134.919 C 117.587 136.172,116.490 137.704,116.037 138.323 C 113.518 141.769,109.693 147.051,106.341 151.716 C 104.250 154.626,101.930 157.840,101.185 158.858 C 99.555 161.088,97.996 163.250,93.836 169.049 C 92.105 171.463,89.352 175.291,87.719 177.555 C 86.086 179.819,84.445 182.098,84.074 182.620 C 83.702 183.141,82.486 184.814,81.373 186.338 C 80.259 187.862,79.195 189.331,79.010 189.604 C 78.579 190.235,76.780 192.745,73.494 197.299 C 64.569 209.668,64.178 210.433,69.330 205.427 C 73.846 201.040,80.603 195.204,84.734 192.122 C 85.397 191.626,86.705 190.637,87.640 189.923 C 93.787 185.230,102.418 180.041,109.487 176.789 C 118.353 172.710,126.732 170.238,135.847 169.013 C 142.951 168.058,153.565 168.464,160.270 169.947 C 170.146 172.132,178.443 175.426,186.978 180.552 C 190.487 182.660,190.389 182.649,191.996 181.148 C 192.692 180.498,193.663 179.610,194.155 179.176 C 194.646 178.741,196.618 176.966,198.537 175.231 C 200.456 173.497,202.389 171.776,202.833 171.407 C 203.276 171.039,204.712 169.826,206.022 168.711 C 209.567 165.697,211.490 164.121,213.263 162.776 C 214.140 162.112,214.907 161.504,214.969 161.426 C 216.211 159.851,238.238 144.963,239.326 144.963 C 239.389 144.963,240.305 144.466,241.362 143.858 C 243.132 142.839,246.418 141.195,249.747 139.663 C 270.594 130.069,289.702 131.640,301.623 143.929 C 303.324 145.683,303.365 145.644,307.316 138.548 C 307.868 137.558,308.688 136.105,309.140 135.319 C 309.591 134.533,309.961 133.847,309.961 133.795 C 309.961 133.742,310.201 133.319,310.494 132.854 C 311.696 130.951,318.702 117.089,320.651 112.761 C 321.232 111.468,321.901 109.981,322.137 109.457 C 322.373 108.932,322.566 108.459,322.566 108.407 C 322.566 108.354,323.073 107.240,323.692 105.931 C 324.311 104.622,324.817 103.480,324.817 103.394 C 324.817 103.308,325.010 102.825,325.247 102.322 C 326.178 100.338,327.395 97.422,328.680 94.091 C 329.421 92.172,330.117 90.400,330.227 90.152 C 330.710 89.068,333.092 82.652,334.572 78.447 C 336.210 73.793,339.545 63.401,341.218 57.738 C 342.278 54.148,342.767 52.433,344.395 46.595 C 345.470 42.738,347.979 32.358,349.046 27.349 C 349.230 26.483,349.524 25.166,349.699 24.423 C 350.000 23.147,351.423 16.202,352.190 12.268 C 352.384 11.277,352.635 10.042,352.748 9.523 C 353.162 7.630,352.693 7.597,350.983 9.398 " stroke="none" fill="#c20404" fill-rule="evenodd"></path></g></svg>