<?xml version="1.0" encoding="utf-8"?>
<!-- Generator: Adobe Illustrator 22.1.0, SVG Export Plug-In . SVG Version: 6.00 Build 0)  -->
<svg version="1.1" id="Layer_1" xmlns="http://www.w3.org/2000/svg" xmlns:xlink="http://www.w3.org/1999/xlink" x="0px" y="0px"
	 viewBox="0 0 800 800" style="enable-background:new 0 0 800 800;" xml:space="preserve">
<style type="text/css">
	.st0{fill:none;stroke:#FFFFFF;stroke-width:60;stroke-linecap:round;stroke-linejoin:round;}
</style>
<path class="st0" d="M416.7,229.8v-43.9c0-6.9,0-10.4,1.2-13.3c1-2.6,2.7-4.9,4.8-6.7c2.4-2,5.7-3.1,12.3-5.3l146.7-48.9
	c11.8-3.9,17.8-5.9,22.5-4.7c4.1,1,7.7,3.6,10,7.2c2.6,4.1,2.6,10.3,2.6,22.8v110.4c0,6.9,0,10.4-1.2,13.3c-1,2.6-2.7,4.9-4.8,6.7
	c-2.4,2-5.7,3.1-12.3,5.3L494,307.6 M416.7,416.7v200 M416.7,616.7c0,46-52.2,83.3-116.7,83.3s-116.7-37.3-116.7-83.3
	s52.2-83.3,116.7-83.3S416.7,570.6,416.7,616.7z M100,100l600,600"/>
</svg>
